
<svg xmlns="http://www.w3.org/2000/svg" role="img" enable-background="new 0 0 24 24" viewBox="0 0 24 24" id="connected-car">
  <circle cx="256" cy="121.734" r="15.693" fill="gold"></circle>
  <path fill="#f9f9f9" d="M185.299,169.483h141.401c40.828,0,77.555,24.82,92.784,62.701l25.272,62.867H67.244
				l25.272-62.867C107.744,194.303,144.472,169.483,185.299,169.483z"></path>
  <path fill="#00bfff" d="M489.5,451.426h-467c-8.284,0-15-6.716-15-15V345.05c0-27.614,22.386-50,50-50h397
				c27.614,0,50,22.386,50,50v91.375C504.5,444.71,497.784,451.426,489.5,451.426z"></path>
  <path fill="#004c7a" d="M121.723 504.5H49.955c-8.284 0-15-6.716-15-15v-38.074h101.768V489.5C136.723 497.784 130.007 504.5 121.723 504.5zM453.793 504.5h-71.767c-8.284 0-15-6.716-15-15v-38.074h101.767V489.5C468.793 497.784 462.077 504.5 453.793 504.5z"></path>
  <path fill="#f9f9f9" d="M504.5,345.05c0-8.624-2.184-16.737-6.027-23.818c-0.312,0.259-0.627,0.513-0.925,0.798
				l-36.34,34.681H50.792l-36.34-34.681c-0.298-0.284-0.613-0.538-0.925-0.797C9.684,328.314,7.5,336.427,7.5,345.05v18.726
				l24.199,23.094c3.255,3.107,7.582,4.84,12.082,4.84h424.438c4.5,0,8.827-1.733,12.082-4.84l24.199-23.094V345.05z"></path>
  <path fill="#00bfff" d="M30.896 246.705h12.952c12.921 0 23.396 10.475 23.396 23.396v23.396H30.896c-12.921 0-23.396-10.475-23.396-23.396v0C7.5 257.18 17.975 246.705 30.896 246.705zM481.104 246.705h-12.952c-12.921 0-23.396 10.475-23.396 23.396v23.396h36.348c12.921 0 23.396-10.475 23.396-23.396v0C504.5 257.18 494.025 246.705 481.104 246.705z"></path>
  <path fill="#004c7a" d="M350.779,356.711H161.221c-9.665,0-17.5,7.835-17.5,17.5l0,0c0,9.665,7.835,17.5,17.5,17.5
				h189.557c9.665,0,17.5-7.835,17.5-17.5l0,0C368.279,364.546,360.444,356.711,350.779,356.711z"></path>
  <circle cx="103.074" cy="64.75" r="15.693" fill="gold"></circle>
  <circle cx="408.926" cy="64.75" r="15.693" fill="gold"></circle>
  <path d="M489.83,299.712c12.799-3.776,22.17-15.627,22.17-29.633c0-17.036-13.859-30.896-30.896-30.896h-12.952
				c-13.605,0-25.176,8.843-29.288,21.081l-12.421-30.899c-8.032-19.981-21.709-36.915-39.552-48.973
				c-14.703-9.936-31.425-16.001-48.903-17.832v-30.848c0-1.378,1.121-2.5,2.5-2.5h58.438c9.649,0,17.5-7.851,17.5-17.5V86.66
				c3.311-1.129,6.353-2.986,8.898-5.532c4.381-4.381,6.794-10.205,6.794-16.4c0-6.195-2.413-12.019-6.793-16.399
				c-4.381-4.38-10.205-6.793-16.399-6.793c-6.195,0-12.019,2.412-16.399,6.793c-0.001,0-0.001,0-0.001,0
				c-9.042,9.043-9.042,23.756,0.001,32.8c2.546,2.546,5.589,4.403,8.899,5.532v25.052c0,1.378-1.121,2.5-2.5,2.5h-58.438
				c-9.649,0-17.5,7.851-17.5,17.5v30.248H263.5v-18.333c3.252-1.107,6.312-2.928,8.9-5.516c9.042-9.043,9.042-23.756,0-32.799
				c0,0,0,0-0.001-0.001c-9.043-9.042-23.757-9.041-32.8,0.001c-9.042,9.043-9.042,23.756,0.001,32.8
				c2.588,2.588,5.648,4.409,8.899,5.516v18.333h-59.488v-30.248c0-9.649-7.851-17.5-17.5-17.5h-58.439c-1.379,0-2.5-1.122-2.5-2.5
				V86.66c3.311-1.129,6.354-2.987,8.9-5.532c4.381-4.381,6.794-10.205,6.794-16.4c0-6.194-2.413-12.019-6.793-16.399
				c0,0,0,0-0.001,0c-4.38-4.38-10.204-6.793-16.398-6.793c-6.195,0-12.02,2.413-16.399,6.793c-4.381,4.381-6.794,10.205-6.794,16.4
				c0,6.195,2.413,12.02,6.793,16.4c2.546,2.546,5.589,4.403,8.899,5.532v25.053c0,9.649,7.851,17.5,17.5,17.5h58.439
				c1.379,0,2.5,1.122,2.5,2.5v30.854c-14.984,1.586-29.536,6.302-42.622,13.889c-3.584,2.078-4.805,6.667-2.727,10.25
				c2.079,3.584,6.67,4.804,10.25,2.727c14.071-8.158,30.111-12.471,46.387-12.471h141.4c37.974,0,71.662,22.766,85.825,57.999
				l21.132,52.569H78.342l21.132-52.568c4.082-10.154,9.862-19.408,17.18-27.506c2.777-3.073,2.537-7.815-0.536-10.593
				c-3.071-2.777-7.814-2.538-10.593,0.536c-8.507,9.413-15.225,20.169-19.969,31.967l-12.421,30.898
				c-4.113-12.237-15.684-21.079-29.288-21.079H30.896C13.859,239.183,0,253.043,0,270.079c0,14.006,9.371,25.858,22.17,29.633
				C8.691,310.245,0,326.636,0,345.028v91.375c0,12.407,10.094,22.5,22.5,22.5h4.955v30.574c0,12.407,10.094,22.5,22.5,22.5h71.768
				c12.406,0,22.5-10.093,22.5-22.5v-30.574h215.303v30.574c0,12.407,10.094,22.5,22.5,22.5h71.768c12.406,0,22.5-10.093,22.5-22.5
				v-30.574H489.5c12.406,0,22.5-10.093,22.5-22.5v-91.375C512,326.636,503.309,310.245,489.83,299.712z M403.134,58.934
				c1.547-1.547,3.605-2.399,5.793-2.399c2.188,0,4.245,0.852,5.793,2.4c1.547,1.547,2.399,3.604,2.399,5.792
				c0,2.188-0.853,4.246-2.4,5.794c-1.547,1.547-3.605,2.399-5.792,2.399c-2.188,0-4.246-0.852-5.793-2.399
				C399.94,67.327,399.94,62.129,403.134,58.934z M250.206,115.919c1.598-1.597,3.695-2.396,5.794-2.396s4.196,0.799,5.793,2.396
				c3.194,3.194,3.194,8.392,0.001,11.586c-3.194,3.194-8.393,3.195-11.587,0C247.013,124.311,247.013,119.113,250.206,115.919z
				 M97.281,58.934c1.547-1.547,3.604-2.399,5.793-2.399c2.188,0,4.245,0.852,5.792,2.399c0,0,0,0,0.001,0
				c1.547,1.547,2.399,3.604,2.399,5.792c0,2.188-0.853,4.246-2.4,5.794c-1.547,1.547-3.604,2.399-5.792,2.399
				c-2.189,0-4.246-0.852-5.794-2.4c-1.547-1.547-2.399-3.604-2.399-5.793C94.881,62.539,95.733,60.482,97.281,58.934z
				 M430.737,364.188h30.471c1.929,0,3.783-0.743,5.178-2.074l29.22-27.885c0.907,3.45,1.395,7.069,1.395,10.799v15.516
				l-21.877,20.878c-1.869,1.784-4.32,2.766-6.904,2.766h-94.534c1.343-3.065,2.094-6.445,2.094-10c0-3.555-0.75-6.935-2.094-10
				h24.366c4.143,0,7.5-3.358,7.5-7.5c0-4.142-3.357-7.5-7.5-7.5H53.797l-30.604-29.206c7.739-10.571,20.231-17.454,34.307-17.454
				h397c14.075,0,26.568,6.883,34.307,17.454l-30.604,29.206h-27.466c-4.143,0-7.5,3.358-7.5,7.5
				C423.237,360.83,426.595,364.188,430.737,364.188z M161.222,384.188c-5.514,0-10-4.486-10-10c0-5.514,4.486-10,10-10h189.557
				c5.514,0,10,4.486,10,10c0,5.514-4.486,10-10,10H161.222z M15,345.028c0-3.731,0.487-7.35,1.395-10.8l29.22,27.885
				c1.395,1.332,3.249,2.074,5.178,2.074h87.523c-1.343,3.065-2.094,6.445-2.094,10c0,3.555,0.751,6.935,2.094,10H43.781
				c-2.584,0-5.035-0.982-6.904-2.766L15,360.544V345.028z M452.257,270.079c0-8.765,7.131-15.896,15.896-15.896h12.952
				c8.765,0,15.896,7.131,15.896,15.896c0,8.765-7.131,15.896-15.896,15.896h-28.848V270.079z M15,270.079
				c0-8.765,7.131-15.896,15.896-15.896h12.952c8.766,0,15.896,7.131,15.896,15.896v15.896H30.896
				C22.131,285.975,15,278.844,15,270.079z M129.223,489.478c0,4.136-3.364,7.5-7.5,7.5H49.955c-4.136,0-7.5-3.364-7.5-7.5v-30.574
				h86.768V489.478z M461.293,489.478c0,4.136-3.364,7.5-7.5,7.5h-71.768c-4.136,0-7.5-3.364-7.5-7.5v-30.574h86.768V489.478z
				 M489.5,443.904H354.694v-12.609c0-4.142-3.357-7.5-7.5-7.5c-4.143,0-7.5,3.358-7.5,7.5v12.609h-30.598v-12.609
				c0-4.142-3.357-7.5-7.5-7.5c-4.143,0-7.5,3.358-7.5,7.5v12.609H263.5v-12.609c0-4.142-3.357-7.5-7.5-7.5
				c-4.143,0-7.5,3.358-7.5,7.5v12.609h-30.597v-12.609c0-4.142-3.357-7.5-7.5-7.5c-4.143,0-7.5,3.358-7.5,7.5v12.609h-30.598
				v-12.609c0-4.142-3.357-7.5-7.5-7.5c-4.143,0-7.5,3.358-7.5,7.5v12.609H22.5c-4.136,0-7.5-3.364-7.5-7.5v-55.125l11.521,10.996
				c4.672,4.458,10.801,6.914,17.26,6.914h424.438c6.459,0,12.589-2.456,17.26-6.914L497,381.279v55.125
				C497,440.539,493.636,443.904,489.5,443.904z"></path>
  <path d="M224.355,80.573c-2.93,2.929-2.93,7.677-0.001,10.606s7.677,2.929,10.607,0c11.6-11.601,30.479-11.601,42.078,0
				c1.465,1.465,3.385,2.197,5.304,2.197c1.919,0,3.839-0.732,5.304-2.197c2.929-2.929,2.929-7.678-0.001-10.606
				C270.196,63.123,241.804,63.123,224.355,80.573z"></path>
  <path d="M299.489,66.735c1.919,0,3.839-0.732,5.304-2.197c2.929-2.929,2.929-7.678,0-10.606
				c-26.904-26.904-70.682-26.904-97.586,0c-2.929,2.929-2.929,7.678,0,10.606c2.93,2.929,7.678,2.929,10.607,0
				c21.055-21.056,55.316-21.056,76.371,0C295.65,66.003,297.57,66.735,299.489,66.735z"></path>
  <path d="M200.666,37.897c30.512-30.51,80.156-30.51,110.668,0c1.464,1.465,3.384,2.197,5.303,2.197
				c1.919,0,3.839-0.732,5.304-2.197c2.929-2.929,2.929-7.678-0.001-10.606c-36.359-36.358-95.52-36.358-131.879,0
				c-2.93,2.929-2.93,7.677-0.001,10.606S197.737,40.826,200.666,37.897z"></path>
</svg>
