<svg version="1.0" xmlns="http://www.w3.org/2000/svg"
  viewBox="0 0 24 24" fill="#c132d1">
<metadata>
Created by potrace 1.10, written by Peter Selinger 2001-2011
</metadata>
<g transform="translate(0.000000,240.000000) scale(0.100000,-0.100000)"
fill="#" stroke="none">
<path d="M2259 2158 c-1 -1 -3 -13 -4 -25 -2 -19 1 -21 17 -12 20 11 20 30 0
37 -7 2 -13 2 -13 0z"/>
<path d="M341 2118 c2 -31 2 -31 6 -5 4 23 9 27 37 27 17 0 38 -6 46 -12 12
-11 12 -10 1 5 -9 11 -27 17 -52 17 -38 0 -39 -1 -38 -32z"/>
<path d="M1970 2090 l0 -60 38 2 c36 1 36 1 5 5 -32 4 -33 6 -33 53 0 47 1 49
33 53 31 4 31 4 -5 5 l-38 2 0 -60z"/>
<path d="M344 2055 c1 -28 67 -34 86 -8 12 15 12 16 0 6 -22 -20 -78 -16 -83
5 -3 13 -4 12 -3 -3z"/>
<path d="M1785 1939 c-17 -8 -16 -9 8 -5 37 5 66 -21 72 -64 5 -34 5 -34 -11
8 -8 23 -19 42 -24 42 -5 0 -2 -14 7 -31 13 -27 13 -35 -2 -81 -9 -27 -14 -52
-12 -55 3 -2 8 8 11 23 4 14 9 24 12 21 3 -2 2 -16 -2 -31 -7 -29 -38 -36 -48
-10 -8 21 -8 26 2 20 5 -3 15 20 21 50 11 50 11 58 -5 75 -9 10 -23 19 -31 19
-7 0 -21 5 -31 11 -38 24 -196 -52 -289 -139 -26 -24 -41 -39 -32 -33 10 7 19
7 25 1 6 -6 29 5 64 31 30 23 74 51 97 62 38 18 49 37 22 37 -6 0 -7 -4 -4
-10 4 -6 -1 -7 -12 -3 -14 6 -10 10 22 24 48 21 106 35 86 21 -17 -12 1 -25
38 -26 22 -1 27 -6 29 -34 2 -18 -4 -53 -14 -77 l-17 -45 -302 0 c-280 0 -303
-1 -318 -18 -15 -16 -17 -48 -17 -246 0 -138 4 -235 10 -247 10 -17 23 -19
149 -19 113 0 140 3 145 15 4 12 -17 15 -137 17 l-142 3 -3 224 c-1 150 1 228
8 235 7 7 109 11 303 11 161 0 277 -1 259 -3 -23 -2 -32 -8 -29 -16 7 -17
-140 -26 -283 -17 -58 4 -134 4 -170 1 l-64 -5 -4 -39 c-3 -27 0 -36 8 -31 7
4 10 19 8 34 -4 25 -2 26 48 26 29 0 50 -3 47 -8 -7 -12 26 -20 40 -9 14 11
159 23 152 12 -3 -4 3 -14 12 -21 14 -12 -3 -15 -118 -20 l-134 -5 138 -1
c125 -1 141 -3 160 -21 16 -16 38 -22 84 -24 l62 -3 -50 -80 c-29 -47 -55 -79
-63 -77 -8 1 -17 -2 -21 -8 -9 -14 -72 -13 -81 2 -5 7 -2 8 7 3 11 -6 12 -5 2
5 -8 9 -35 12 -80 11 -56 -2 -73 2 -95 18 -28 22 -92 28 -118 11 -11 -7 -1
-10 36 -10 39 0 55 -5 70 -21 15 -17 29 -20 87 -18 60 2 70 0 83 -19 10 -15
26 -22 49 -22 19 0 36 3 39 8 2 4 -14 6 -37 4 -23 -3 -40 -2 -37 1 3 3 25 7
48 8 23 2 42 8 42 13 0 6 4 5 9 -2 6 -10 21 7 53 58 26 41 48 67 52 61 4 -6 2
-11 -5 -11 -9 0 -9 -3 0 -14 13 -16 -22 -77 -108 -191 -24 -33 -35 -51 -23
-41 12 11 22 15 22 11 0 -5 5 -4 12 3 8 8 46 12 104 12 103 0 124 5 124 29 -1
14 -2 14 -11 -1 -8 -15 -25 -18 -99 -18 -50 0 -90 2 -90 6 0 3 11 21 24 41 14
19 22 43 19 52 -4 14 -3 14 6 1 6 -8 11 -30 11 -47 l0 -33 59 0 58 0 6 67 c3
38 3 71 0 75 -2 5 -20 8 -39 8 -24 0 -34 4 -31 13 2 6 15 11 29 9 28 -3 44 11
32 30 -5 8 -11 5 -20 -7 -23 -31 -27 -10 -5 25 10 18 17 39 14 47 -3 8 0 13 7
11 7 -2 15 4 17 12 4 13 3 13 -6 0 -10 -13 -11 -13 -11 0 0 8 -18 -15 -41 -52
-37 -62 -59 -88 -46 -54 3 7 0 19 -6 25 -8 8 -8 14 0 22 8 8 13 7 18 -2 6 -8
4 -10 -5 -4 -9 5 -11 4 -6 -3 10 -16 14 -15 26 7 7 14 7 22 -2 27 -7 5 -8 3
-3 -6 5 -8 4 -11 -3 -6 -6 4 -9 13 -5 22 4 10 9 12 18 4 15 -12 44 26 43 56 0
11 3 28 7 39 5 16 5 17 -4 5 -15 -22 -13 -7 6 41 12 32 18 38 25 26 9 -18 0
-49 -13 -41 -5 3 -6 -3 -2 -12 6 -16 7 -16 18 0 32 44 36 19 30 -201 -4 -120
-9 -221 -11 -225 -3 -5 -57 -8 -121 -8 -98 0 -119 -3 -143 -20 -15 -11 -29
-17 -32 -15 -2 3 -15 -7 -29 -22 -19 -23 -20 -24 -2 -10 14 12 23 15 28 7 9
-15 -109 -135 -135 -137 -19 -2 -20 0 -9 15 7 9 -9 -4 -37 -30 -59 -57 -83
-64 -33 -10 l34 37 -37 -34 c-21 -19 -40 -32 -43 -29 -7 7 81 83 96 83 5 0 14
7 19 15 5 8 10 11 10 6 0 -15 29 15 103 108 95 119 188 252 181 259 -3 3 -36
-39 -72 -94 -36 -54 -69 -94 -72 -88 -5 6 -11 5 -18 -4 -8 -9 -30 -13 -64 -12
-50 2 -51 2 -10 -4 23 -3 44 -10 45 -15 2 -9 -270 -9 -285 0 -30 19 36 28 214
29 48 0 84 3 80 7 -10 9 -272 15 -272 6 0 -5 -7 -8 -15 -8 -10 0 -15 17 -18
68 l-3 67 -2 -80 c-1 -52 2 -85 10 -93 8 -8 55 -12 147 -12 105 0 132 -3 123
-12 -21 -21 -13 -32 10 -12 l22 19 -22 -30 c-36 -50 -72 -90 -72 -82 0 5 12
25 26 45 24 32 21 31 -19 -10 -26 -27 -52 -48 -59 -48 -18 -1 -72 -49 -64 -58
9 -8 -94 -73 -106 -66 -13 8 -9 55 10 103 13 33 23 45 39 46 24 2 67 34 58 43
-3 3 -16 -5 -30 -18 -25 -24 -47 -21 -27 3 9 11 8 14 -4 14 -9 0 -24 -14 -34
-30 l-19 -30 -20 34 c-12 19 -21 42 -21 52 0 10 -7 32 -16 48 -11 23 -15 52
-12 110 2 66 1 76 -9 62 -7 -9 -13 -20 -13 -25 0 -4 -5 -8 -10 -8 -20 0 20 59
42 63 l23 4 -23 2 c-15 1 -28 -9 -41 -30 -21 -34 -17 -64 5 -55 10 4 14 -3 13
-22 0 -24 -1 -25 -9 -7 -8 17 -9 18 -11 3 -1 -10 -3 -22 -4 -28 -1 -5 -3 -22
-5 -37 l-2 -28 -14 34 c-10 21 -13 44 -8 60 10 37 11 81 0 81 -4 0 -6 -11 -4
-25 3 -14 1 -28 -3 -31 -16 -9 -10 -65 11 -103 10 -20 24 -56 31 -80 6 -28 24
-58 46 -80 35 -35 35 -35 19 -68 -24 -50 -21 -89 9 -109 29 -19 75 -12 118 18
15 11 27 16 27 12 0 -5 18 9 39 30 l39 38 156 -1 c86 -1 156 2 156 7 0 17 -79
72 -104 72 -24 0 -26 4 -26 39 0 22 -5 41 -11 43 -7 2 -5 9 5 17 14 12 16 12
11 -1 -9 -23 285 -14 303 9 14 20 18 488 3 497 -5 4 -5 20 1 40 l11 35 43 -37
c29 -24 49 -52 60 -82 26 -74 35 -93 39 -88 3 3 -4 31 -14 64 -15 46 -31 70
-71 106 -47 44 -50 50 -45 82 8 38 -14 90 -40 100 -20 7 -25 7 -50 -5z m-207
-96 c-24 -14 -48 -29 -55 -34 -7 -7 -14 -6 -18 1 -4 6 -3 9 2 8 13 -4 94 48
86 56 -4 4 1 4 10 0 15 -5 10 -11 -25 -31z m167 -191 c-3 -3 -5 1 -5 9 -1 8
-12 -7 -26 -33 l-24 -48 -68 0 c-67 0 -69 1 -107 42 -22 23 -32 36 -22 29 11
-9 17 -10 17 -2 0 7 30 11 88 11 75 0 93 3 113 20 l23 21 8 -22 c5 -12 6 -24
3 -27z m-9 -127 c-9 -14 -23 -36 -32 -50 l-16 -25 39 0 c22 0 42 -3 46 -6 11
-11 -5 -34 -24 -34 -27 0 -24 -20 4 -21 20 -1 20 -2 2 -6 -11 -3 -23 -10 -27
-17 -6 -8 -8 -7 -8 2 0 6 -11 12 -24 12 -13 0 -29 6 -35 14 -10 12 -3 29 35
85 26 39 49 71 52 71 2 0 -3 -11 -12 -25z m-113 -175 c-19 -32 -70 -95 -56
-70 14 27 65 100 70 100 2 0 -4 -14 -14 -30z m147 -15 c0 -11 -12 -15 -50 -15
-38 0 -50 4 -50 15 0 11 12 15 50 15 38 0 50 -4 50 -15z m-660 -125 c6 -27 18
-54 26 -61 8 -7 19 -20 24 -29 16 -30 -17 -19 -52 18 -18 19 -27 31 -19 27 11
-6 13 -4 6 11 -13 31 -18 84 -7 84 5 0 15 -22 22 -50z m633 13 c-23 -2 -64 -2
-90 0 -26 2 -7 3 42 3 50 0 71 -1 48 -3z m-218 -122 c3 -5 1 -13 -5 -16 -15
-9 -43 3 -35 15 8 13 32 13 40 1z m-379 -72 c-1 -56 20 -70 63 -40 21 16 35
19 47 13 14 -8 12 -12 -12 -31 -20 -16 -36 -20 -58 -16 -24 5 -28 4 -16 -5 12
-9 10 -10 -10 -4 -31 8 -30 7 -35 35 -4 20 11 89 19 89 2 0 2 -19 2 -41z"/>
<path d="M1664 1636 c-4 -11 -1 -22 7 -27 9 -6 -9 -9 -50 -9 -53 0 -69 4 -90
23 l-26 22 25 -28 c22 -26 29 -28 90 -25 54 3 65 6 68 22 5 26 -15 45 -24 22z"/>
<path d="M1671 1421 c-6 -10 -7 -21 -4 -25 10 -10 53 -7 53 4 0 6 -9 10 -20
10 -27 0 -25 18 3 23 l22 4 -22 2 c-13 0 -27 -7 -32 -18z"/>
<path d="M1670 1901 c-24 -7 -24 -7 -5 -18 14 -8 26 -8 40 -1 15 8 17 8 9 -1
-6 -6 -21 -14 -34 -16 -14 -3 -49 -29 -80 -60 -78 -78 -30 -66 56 15 36 33 70
60 76 60 7 0 6 5 -2 15 -13 16 -21 17 -60 6z m-6 -62 c-10 -12 -37 -35 -59
-51 -33 -25 -31 -21 13 21 53 51 82 70 46 30z"/>
<path d="M1145 1811 c-41 -25 -68 -57 -70 -84 -1 -12 -7 -22 -13 -22 -6 0 -16
-5 -22 -11 -15 -15 -31 -84 -19 -84 5 0 9 10 9 23 1 12 7 33 14 46 l13 24 6
-29 c3 -16 2 -32 -2 -36 -4 -5 -5 -25 -2 -45 l5 -38 7 35 6 35 2 -37 c1 -37
-7 -45 -41 -39 -5 0 -8 -4 -8 -9 0 -5 13 -10 29 -10 25 0 29 4 34 38 3 20 2
60 -3 87 -9 61 -6 84 17 107 13 12 22 15 33 8 13 -8 13 -10 -1 -10 -9 0 -23
-7 -30 -17 -13 -14 -11 -14 20 1 26 14 51 17 127 13 51 -2 91 -1 89 4 -3 4
-25 15 -49 24 -45 17 -111 17 -150 0 -14 -6 -17 -5 -11 4 4 7 21 19 39 27 17
7 24 13 16 14 -8 0 -28 -8 -45 -19z m146 -37 c25 -11 27 -14 9 -10 -14 3 -54
6 -90 7 -46 0 -59 3 -45 9 32 14 90 11 126 -6z"/>
<path d="M1259 1815 c30 -9 70 -27 88 -41 18 -14 33 -20 33 -15 0 18 -83 60
-130 66 l-45 5 54 -15z"/>
<path d="M1917 1685 c-4 -26 -7 -72 -7 -101 0 -47 2 -54 20 -54 24 0 25 6 5
26 -8 9 -14 23 -14 32 1 15 2 15 6 0 2 -10 9 -18 14 -18 14 0 11 124 -4 145
-13 16 -15 13 -20 -30z"/>
<path d="M1803 1679 c-10 -10 -7 -217 4 -229 2 -2 3 45 2 106 -1 60 1 116 5
122 9 15 4 16 -11 1z"/>
<path d="M1393 1579 c23 -18 37 -16 37 6 0 9 -11 13 -29 13 l-30 -1 22 -18z"/>
<path d="M1172 1555 c-3 -34 -2 -35 35 -35 28 0 34 -3 23 -10 -11 -7 -7 -9 15
-7 19 2 31 9 33 19 3 15 -3 16 -47 11 -47 -5 -51 -4 -51 16 0 19 5 21 58 21
56 0 60 -2 91 -40 26 -33 38 -40 66 -40 19 0 46 -5 60 -12 19 -9 30 -8 48 1
12 7 39 10 59 8 20 -2 42 0 50 5 15 10 -95 5 -129 -7 -16 -5 -21 -3 -19 9 1 8
6 19 11 23 4 4 5 2 1 -4 -4 -7 -3 -13 2 -13 11 0 34 25 28 31 -3 2 21 4 52 4
31 0 57 5 57 10 0 18 -118 5 -141 -16 -35 -33 -84 -25 -129 21 -38 39 -41 40
-105 40 l-66 0 -2 -35z"/>
<path d="M2682 1508 l2 -63 3 57 c4 56 5 57 36 61 31 4 31 4 -5 5 l-38 2 2
-62z"/>
<path d="M1916 1485 c-8 -30 -1 -45 20 -45 17 0 19 26 2 33 -10 4 -10 6 0 6
17 1 15 31 -2 31 -8 0 -17 -11 -20 -25z"/>
<path d="M1335 1463 c22 -3 45 -9 52 -15 14 -11 36 -1 28 13 -4 5 -32 8 -63 7
-47 -1 -50 -2 -17 -5z"/>
<path d="M1910 1361 c0 -31 -4 -61 -9 -66 -4 -6 -13 -37 -20 -69 -23 -121 -83
-136 -198 -49 -18 13 -33 20 -33 14 0 -5 28 -28 61 -50 49 -33 70 -41 106 -41
39 0 51 5 83 38 27 27 39 49 45 82 4 25 13 52 20 60 6 8 15 24 19 35 6 20 6
20 -9 1 -8 -11 -16 -25 -17 -30 -1 -6 -4 14 -8 44 l-7 55 -1 -64 c-2 -79 -13
-74 -18 8 -3 50 0 61 12 61 21 0 13 23 -9 26 -14 2 -17 -7 -17 -55z m8 -136
c-3 -40 -11 -62 -28 -80 -35 -38 -40 -30 -14 22 13 25 24 58 24 73 0 25 7 40
18 40 2 0 2 -25 0 -55z"/>
<path d="M1551 1361 c-7 -13 -18 -18 -29 -15 -14 5 -15 4 -2 -5 11 -7 -6 -11
-65 -13 l-80 -3 79 -5 c77 -5 79 -4 98 23 11 16 18 31 15 33 -3 3 -10 -4 -16
-15z"/>
<path d="M1261 1149 c-24 -21 -50 -39 -57 -39 -8 0 -14 -5 -14 -10 0 -7 7 -7
20 0 11 6 24 9 29 6 10 -6 79 42 101 70 13 17 12 17 -10 -1 -52 -43 -66 -51
-41 -22 38 42 21 39 -28 -4z"/>
<path d="M1650 1156 c35 -38 88 -72 97 -63 2 3 -6 11 -19 18 -12 6 -43 28 -68
47 l-45 36 35 -38z"/>
<path d="M1428 1133 c-36 -37 -51 -78 -17 -48 10 10 16 21 14 25 -6 9 30 42
37 35 3 -3 10 1 16 8 25 30 -18 13 -50 -20z"/>
<path d="M122 845 c-29 -13 -33 -19 -30 -47 3 -30 8 -35 55 -52 29 -10 50 -22
47 -27 -8 -13 -41 -11 -64 3 -15 10 -22 10 -32 0 -9 -9 -7 -16 7 -32 24 -27
95 -28 118 -2 34 38 13 74 -53 92 -22 6 -40 15 -40 19 0 15 31 21 50 11 20
-10 50 -4 50 11 0 9 -53 39 -67 39 -4 -1 -23 -7 -41 -15z"/>
<path d="M1292 850 c-12 -5 -27 -21 -34 -35 -14 -32 8 -60 60 -72 45 -11 55
-33 15 -33 -16 0 -34 5 -40 11 -7 7 -17 8 -28 1 -16 -9 -16 -11 4 -31 13 -13
34 -21 57 -21 51 0 74 15 74 49 0 34 -15 49 -59 57 -35 7 -48 21 -33 36 7 7
17 6 30 -1 12 -6 30 -8 42 -3 20 8 20 9 3 24 -24 22 -63 29 -91 18z"/>
<path d="M2250 842 c-86 -43 -54 -172 42 -172 56 0 88 24 88 66 l0 34 -50 0
c-40 0 -48 -3 -44 -15 4 -8 17 -15 31 -15 35 0 24 -24 -13 -28 -20 -2 -36 4
-48 17 -40 44 18 110 68 77 18 -11 25 -12 40 -1 17 13 16 14 -6 28 -39 25 -72
27 -108 9z"/>
<path d="M250 830 c0 -16 7 -20 30 -20 l30 0 0 -70 c0 -63 2 -70 20 -70 18 0
20 7 20 70 l0 70 30 0 c23 0 30 4 30 20 0 18 -7 20 -80 20 -73 0 -80 -2 -80
-20z"/>
<path d="M440 760 l0 -90 70 0 c63 0 70 2 70 20 0 17 -7 20 -50 20 -38 0 -50
4 -50 15 0 11 11 15 40 15 33 0 40 3 40 20 0 17 -7 20 -40 20 -28 0 -40 4 -40
14 0 11 14 16 47 18 35 2 47 7 49 21 2 15 -7 17 -67 17 l-69 0 0 -90z"/>
<path d="M602 842 c67 -164 72 -173 96 -170 21 2 31 18 63 91 37 87 37 87 14
87 -18 0 -27 -11 -45 -57 -13 -32 -26 -61 -29 -65 -3 -4 -17 22 -30 58 -21 54
-29 64 -49 64 -13 0 -22 -4 -20 -8z"/>
<path d="M830 760 l0 -90 65 0 c58 0 65 2 65 20 0 17 -7 20 -45 20 -33 0 -45
4 -45 15 0 10 11 15 35 15 28 0 35 4 35 20 0 16 -7 20 -35 20 -24 0 -35 5 -35
15 0 11 12 15 45 15 38 0 45 3 45 20 0 18 -7 20 -65 20 l-65 0 0 -90z"/>
<path d="M990 760 c0 -88 1 -90 23 -90 23 0 23 3 19 56 -5 66 0 65 54 -6 26
-34 45 -50 61 -50 22 0 23 3 23 90 0 89 0 90 -25 90 -25 0 -25 -1 -19 -55 4
-30 4 -55 2 -55 -3 0 -25 25 -48 55 -30 39 -49 55 -66 55 -23 0 -24 -2 -24
-90z"/>
<path d="M1428 783 c3 -52 9 -73 25 -90 20 -23 67 -30 102 -17 26 10 45 59 45
119 0 51 -2 55 -24 55 -22 0 -23 -3 -18 -49 5 -57 -10 -91 -41 -91 -36 0 -47
19 -47 82 0 53 -2 58 -22 58 -22 0 -23 -3 -20 -67z"/>
<path d="M1628 760 c-3 -88 -2 -90 20 -90 15 0 22 6 22 20 0 16 7 20 30 20 38
0 70 32 70 70 0 46 -31 70 -89 70 l-50 0 -3 -90z m97 20 c0 -20 -6 -26 -27
-28 -25 -3 -28 0 -28 28 0 28 3 31 28 28 21 -2 27 -8 27 -28z"/>
<path d="M1805 760 l0 -90 68 0 c60 0 67 2 67 20 0 17 -7 20 -48 20 -37 0 -49
4 -49 15 0 11 11 15 39 15 31 0 38 3 38 20 0 17 -7 20 -38 20 -28 0 -39 4 -39
15 0 11 12 15 49 15 41 0 48 3 48 20 0 18 -7 20 -67 20 l-68 0 0 -90z"/>
<path d="M1970 760 c0 -83 1 -90 20 -90 13 0 20 7 20 20 0 13 7 20 20 20 10 0
24 -9 30 -20 6 -12 21 -20 37 -20 25 0 25 1 9 25 -15 23 -15 28 -1 47 20 30
19 50 -6 82 -18 22 -28 26 -75 26 l-54 0 0 -90z m104 34 c9 -22 -11 -44 -40
-44 -20 0 -24 5 -24 30 0 26 3 30 29 30 17 0 31 -6 35 -16z"/>
<path d="M2410 760 l0 -90 69 0 c64 0 69 1 64 20 -4 16 -14 20 -49 20 -32 0
-44 4 -44 15 0 11 11 15 40 15 33 0 40 3 40 20 0 17 -7 20 -40 20 -29 0 -40 4
-40 15 0 11 12 15 45 15 38 0 45 3 45 20 0 18 -7 20 -65 20 l-65 0 0 -90z"/>
<path d="M2580 760 l0 -90 65 0 c58 0 65 2 65 20 0 17 -7 20 -45 20 -33 0 -45
4 -45 15 0 10 10 15 33 15 38 0 48 6 40 26 -3 8 -19 14 -39 14 -24 0 -34 5
-34 15 0 11 12 15 45 15 38 0 45 3 45 20 0 18 -7 20 -65 20 l-65 0 0 -90z"/>
<path d="M2745 760 c0 -87 1 -90 23 -90 17 0 22 6 22 24 0 13 7 29 15 36 13
11 18 10 30 -6 8 -10 17 -27 20 -36 4 -12 17 -18 36 -18 l30 0 -33 46 c-18 25
-36 48 -41 51 -5 3 8 23 29 44 l38 39 -29 0 c-23 -1 -37 -11 -60 -40 -16 -21
-33 -39 -37 -40 -3 0 -4 18 -1 40 5 37 4 40 -18 40 -24 0 -24 -2 -24 -90z"/>
<path d="M1222 574 c-29 -20 -29 -59 2 -79 23 -16 56 -11 56 7 0 6 -7 8 -15 4
-24 -9 -45 4 -45 29 0 25 21 38 45 29 8 -4 15 -2 15 4 0 5 -7 13 -16 16 -20 8
-16 9 -42 -10z"/>
<path d="M1400 566 c0 -21 -5 -26 -25 -26 -18 0 -25 5 -25 20 0 11 -4 20 -10
20 -5 0 -10 -20 -10 -45 0 -25 5 -45 10 -45 6 0 10 9 10 20 0 15 7 20 25 20
20 0 25 -5 25 -26 0 -14 4 -23 10 -19 6 3 10 26 10 50 0 24 -4 47 -10 50 -6 4
-10 -5 -10 -19z"/>
<path d="M1564 579 c-25 -9 -34 -36 -23 -65 11 -30 46 -37 70 -13 26 26 24 39
-6 39 -28 0 -34 -16 -7 -23 16 -4 15 -5 -2 -12 -26 -11 -49 20 -35 46 7 14 16
18 34 13 14 -3 25 -2 25 4 0 14 -32 20 -56 11z"/>
<path d="M1676 578 c-12 -27 -3 -70 19 -84 31 -21 65 6 65 51 0 50 -18 52 -22
3 -2 -35 -7 -43 -23 -43 -16 0 -21 9 -26 45 -4 31 -7 40 -13 28z"/>
<path d="M1929 585 c-6 -56 14 -105 42 -105 19 0 39 35 39 66 0 46 -18 43 -22
-3 -4 -51 -32 -53 -36 -3 -3 33 -21 67 -23 45z"/>
<path d="M993 573 c13 -3 17 -15 17 -49 0 -28 4 -43 10 -39 6 3 10 24 10 45 0
21 6 41 13 43 6 3 -6 5 -28 5 -22 0 -32 -2 -22 -5z"/>
<path d="M1100 535 c0 -44 0 -45 33 -44 23 1 26 3 10 6 -27 5 -31 30 -5 36 16
4 16 5 0 6 -26 2 -22 29 5 34 16 3 13 5 -10 6 -33 1 -33 0 -33 -44z"/>
<path d="M1810 535 c0 -25 5 -45 10 -45 6 0 10 9 10 21 0 18 2 18 25 -8 13
-15 25 -23 25 -17 0 6 -7 17 -15 24 -12 10 -12 16 -4 26 17 20 3 44 -26 44
-23 0 -25 -4 -25 -45z"/>
<path d="M1064 346 c-3 -8 -4 -27 -1 -43 3 -23 4 -22 6 10 1 35 3 37 34 37 18
0 39 -6 47 -12 12 -11 12 -10 1 5 -16 21 -79 23 -87 3z"/>
<path d="M1061 258 c-1 -14 7 -18 38 -18 25 0 43 6 52 18 11 14 11 15 -1 5 -8
-7 -28 -13 -46 -13 -18 0 -35 6 -37 13 -3 7 -6 5 -6 -5z"/>
</g>
</svg>